<svg enable-background="new 0 0 512 512" viewBox="0 0 512 512" xmlns="http://www.w3.org/2000/svg"><path d="m119.886 61.367s-103.064 1.14-103.064 125.214h103.064z" fill="#b2b0bc"/><path d="m392.114 61.367s103.064 1.14 103.064 125.214h-103.064z" fill="#b2b0bc"/><circle cx="455.988" cy="206.446" fill="#ffbe9c" r="43.94"/><path d="m125.34 504.5c0-78.704 56.695-113.321 56.695-113.321h147.931s56.695 34.617 56.695 113.321z" fill="#00c8de"/><path d="m202.035 391.179h-20s-56.695 34.617-56.695 113.321h20c0-78.704 56.695-113.321 56.695-113.321z" fill="#0093ae"/><path d="m191.433 391.179s24.702 68.362 64.567 83.666c39.865-15.303 64.567-83.666 64.567-83.666z" fill="#e0e0e0"/><path d="m269.861 426.315h-27.722l-8.792 33.344c6.85 6.608 14.428 12.028 22.653 15.185 8.225-3.157 15.802-8.577 22.653-15.185z" fill="#fa695b"/><path d="m238.295 377.771v37.535c0 9.778 7.927 17.705 17.705 17.705s17.705-7.927 17.705-17.705v-37.535z" fill="#fc9389"/><circle cx="256" cy="206.446" fill="#ffd3bc" r="198.946"/><path d="m87.054 206.446c0-104.829 81.078-190.716 183.946-198.385-4.952-.369-9.954-.561-15-.561-94.929 0-174.317 66.492-194.161 155.44-1.815-.279-3.748-.434-5.827-.434-24.267 0-43.94 19.672-43.94 43.94 0 24.267 19.673 43.94 43.94 43.94 2.079 0 4.013-.155 5.827-.435 19.844 88.948 99.232 155.44 194.161 155.44 5.046 0 10.048-.191 15-.561-102.868-7.668-183.946-93.556-183.946-198.384z" fill="#ffbe9c"/><ellipse cx="139.264" cy="232.35" fill="#ffa0ab" rx="43.073" ry="34.301"/><ellipse cx="372.736" cy="232.35" fill="#ffa0ab" rx="43.073" ry="34.301"/><path d="m256 259.585c26.492 33.115 65.527 19.392 86.114 8.517 4.993-2.638 5.349-9.572.722-12.809-11.801-8.257-18.672-26.338-28.42-35.423-15.144-14.114-41.234-22.688-58.416-7.11-17.182-15.578-43.272-7.004-58.416 7.11-9.748 9.085-16.619 27.166-28.42 35.423-4.627 3.237-4.271 10.172.722 12.809 20.587 10.875 59.622 24.599 86.114-8.517z" fill="#b2b0bc"/><path d="m164.367 206.831c4.142 0 7.5-3.358 7.5-7.5v-17.608c0-4.143-3.358-7.5-7.5-7.5s-7.5 3.357-7.5 7.5v17.608c0 4.142 3.358 7.5 7.5 7.5z"/><path d="m347.633 206.831c4.142 0 7.5-3.358 7.5-7.5v-17.608c0-4.143-3.358-7.5-7.5-7.5s-7.5 3.357-7.5 7.5v17.608c0 4.142 3.358 7.5 7.5 7.5z"/><path d="m164.865 249.148c-4.355 3.047-6.758 8.019-6.428 13.3.327 5.237 3.298 9.83 7.948 12.286 10.563 5.58 26.777 12.382 44.034 13.1 17.956.746 33.259-4.988 45.583-17.066 11.613 11.381 25.865 17.131 42.501 17.131 16.481 0 32.671-5.535 47.116-13.165 4.65-2.456 7.621-7.049 7.948-12.286.329-5.281-2.074-10.253-6.428-13.3-5.475-3.831-10.164-11.007-14.698-17.947-3.931-6.018-7.997-12.24-12.909-16.817-16.809-15.666-43.727-23.95-63.529-11.07-19.804-12.88-46.721-4.596-63.53 11.07-4.912 4.578-8.977 10.8-12.908 16.817-4.537 6.94-9.225 14.116-14.7 17.947zm8.599 12.29c7.848-5.492 13.343-13.901 18.656-22.033 3.6-5.51 7-10.713 10.578-14.048 17.946-16.725 38.261-16.111 48.265-7.041 2.858 2.592 7.217 2.592 10.075 0 10.004-9.07 30.319-9.685 48.265 7.041 3.578 3.335 6.978 8.539 10.578 14.048 5.313 8.132 10.807 16.542 18.73 22.065-9.196 4.858-23.192 10.774-37.651 11.376-16.117.671-28.906-5.2-39.103-17.946-1.423-1.779-3.578-2.815-5.856-2.815s-4.433 1.036-5.856 2.815c-10.197 12.747-22.984 18.617-39.103 17.946-14.458-.602-28.455-6.518-37.632-11.321z"/><path d="m56.012 257.886h.03c15.357 59.661 56.784 108.962 111.356 135.002-5.544 4.763-12.608 11.672-19.663 20.876-13.638 17.793-29.895 47.979-29.895 90.737 0 4.142 3.358 7.5 7.5 7.5h261.32c4.142 0 7.5-3.358 7.5-7.5 0-14.117-1.775-27.852-5.276-40.823-1.079-3.999-5.197-6.366-9.195-5.287-3.999 1.079-6.366 5.196-5.287 9.195 2.536 9.398 4.068 19.262 4.572 29.415h-37.27v-28.937c0-4.142-3.358-7.5-7.5-7.5s-7.5 3.358-7.5 7.5v28.936h-141.41v-28.937c0-4.142-3.358-7.5-7.5-7.5s-7.5 3.358-7.5 7.5v28.937h-37.275c1.338-27.667 10.145-52.396 26.23-73.6 9.486-12.505 19.091-20.352 23.769-23.792 1.441.545 2.886 1.073 4.336 1.584 3.816 9.063 10.69 23.845 20.354 38.61 8.495 12.979 17.389 23.229 26.585 30.709.012.01.024.02.037.03 5.724 4.653 12.077 8.655 18.982 11.305 1.72.66 3.656.66 5.376 0 9.779-3.753 18.282-10.095 25.699-17.385 20.47-20.083 34.415-49.422 40.257-63.269 1.454-.513 2.903-1.042 4.347-1.588 6.609 4.843 23.031 18.474 35.3 42.014 1.914 3.673 6.443 5.099 10.117 3.185 3.673-1.915 5.099-6.444 3.184-10.117-10.55-20.243-23.835-33.947-32.984-41.803 54.569-26.04 95.994-75.34 111.35-134.999h.03c28.364 0 51.44-23.076 51.44-51.439 0-7.706-1.715-15.015-4.764-21.583-.292-37.107-10.24-86.312-55.099-113.81-22.433-13.751-44.711-16.498-52.494-17.046-36.718-33.527-85.547-54.006-139.071-54.006s-102.353 20.479-139.073 54.007c-7.299.52-27.33 2.979-48.273 14.594-3.623 2.009-4.93 6.574-2.921 10.197 2.009 3.622 6.573 4.93 10.196 2.921 8.124-4.505 16.148-7.433 23.077-9.335-20.485 23.922-35.146 52.05-42.994 82.622-2.634 0-5.282.2-7.885.605-8.287 1.269-16.027 4.513-22.631 9.385 3.177-27.875 12.787-50.239 28.687-66.672 2.88-2.977 2.802-7.725-.175-10.605s-7.725-2.802-10.605.175c-22.305 23.053-33.757 55.675-34.067 96.968-3.05 6.569-4.765 13.879-4.765 21.585.001 28.363 23.077 51.439 51.441 51.439zm173.605 186.503c-8.945-10.985-16.869-24.291-23.254-37.512 8.034 2.015 16.21 3.487 24.431 4.486v3.943c0 4.479 1.18 8.687 3.238 12.336zm26.383 22.315c-4.886-2.266-9.649-5.536-14.236-9.55l4.862-18.44c.602.241 1.217.453 1.838.647 2.438.763 4.981 1.151 7.536 1.151 3.196 0 6.405-.61 9.374-1.799l4.862 18.44c-4.587 4.015-9.349 7.285-14.236 9.551zm-10.205-51.397v-2.669c.01.001.021.001.032.001 3.351.146 6.704.25 10.058.251.039 0 .077.001.115.001 3.394 0 6.784-.095 10.174-.252.01 0 .021 0 .032-.001v2.669c0 5.499-4.646 10.205-10.206 10.205-5.529 0-10.205-4.683-10.205-10.205zm36.588 29.082-4.415-16.746c2.058-3.649 3.238-7.856 3.238-12.336v-3.943c8.217-1.001 16.399-2.478 24.431-4.486-6.385 13.22-14.309 26.526-23.254 37.511zm205.046-256.313c13.218 22.705-2.035 52.334-28.177 54.665.271-1.529.524-3.062.762-4.598 3.475-22.497 3.214-45.562-.759-67.975 10.017.889 19.476 6.079 25.598 14.064.94 1.226 1.8 2.511 2.576 3.844zm-47.168-103.904c26.567 16.525 42.076 43.664 46.259 80.836-6.606-4.878-14.352-8.126-22.645-9.397-2.612-.4-5.261-.605-7.903-.605-7.832-30.572-22.495-58.703-42.98-82.625 8.116 2.227 17.738 5.862 27.269 11.791zm-375.638 117.129c.312-11.627 1.684-23.216 4.092-34.598 18.347-86.555 95.346-151.703 187.285-151.703s168.938 65.148 187.285 151.703c5.538 26.129 5.523 53.367-.002 79.497-16.365 77.182-79.367 137.341-158.015 149.457-19.354 2.978-39.18 2.965-58.536 0-78.648-12.117-141.65-72.275-158.015-149.457-3.111-14.739-4.498-29.84-4.094-44.899zm-41.083-11.339c5.569-11 16.931-18.704 29.206-19.794-.271 1.524-.523 3.053-.759 4.584-1.617 10.467-2.433 21.103-2.433 31.695 0 12.159 1.071 24.322 3.194 36.294-18.569-1.656-33.177-17.302-33.177-36.294.001-5.697 1.393-11.397 3.969-16.485z"/></svg>