<svg xmlns="http://www.w3.org/2000/svg" width="16" height="11.249" viewBox="0 0 16 11.249"><path d="M18.248,46.428A12.467,12.467,0,0,1,14.8,43.135s3.072-4.641,8-4.641a8.006,8.006,0,0,1,2.873.53l-.354.354a7.093,7.093,0,0,0-2.519-.442c-4.243,0-6.961,3.492-7.47,4.2a11.533,11.533,0,0,0,3.249,2.983Zm9.1-6.586-.309.331a11.538,11.538,0,0,1,3.249,2.983c-.53.685-3.249,4.177-7.492,4.177a7.622,7.622,0,0,1-2.519-.42l-.354.331a8.412,8.412,0,0,0,2.873.53c4.928,0,8-4.641,8-4.641A12.467,12.467,0,0,0,27.352,39.843Zm-4.552.2a3.07,3.07,0,0,1,1.481.376l.331-.331A3.644,3.644,0,0,0,22.8,39.6a3.546,3.546,0,0,0-3.536,3.536,3.5,3.5,0,0,0,.486,1.79l.331-.331A3.079,3.079,0,0,1,22.8,40.041Zm0,6.188a3.07,3.07,0,0,1-1.481-.376l-.331.331a3.644,3.644,0,0,0,1.812.486,3.546,3.546,0,0,0,3.536-3.536,3.5,3.5,0,0,0-.486-1.79l-.331.331A3.079,3.079,0,0,1,22.8,46.229ZM28.1,37.5,17.165,48.439l.309.309L28.435,37.831Z" transform="translate(-14.8 -37.5)"/></svg>